TITLE: ROUGH CUT_v02_ZS
FCM: NON-DROP FRAME

001  BL       V     C        00:00:00:00 00:01:25:15 00:00:00:00 00:01:25:15

002  AX       AA    C        00:01:24:06 00:27:58:02 00:01:24:06 00:27:58:02
* FROM CLIP NAME: SFGS_ASSEMBLY-CUT_v.02.mp4

003  AX       V     C        00:59:56:09 01:00:01:08 00:01:25:15 00:01:30:14
* FROM CLIP NAME: TEMP TITLE

004  BL       V     C        00:00:00:00 00:00:01:02 00:01:30:14 00:01:31:16

005  BL       V     C        00:00:00:00 00:00:00:08 00:01:30:14 00:00:00:00

006  BL       V     C        00:00:00:00 00:00:00:00 00:01:31:16 00:01:31:16
FCM: NON-DROP FRAME
006  AX       V     D    008 09:09:24:19 09:09:29:07 00:01:31:16 00:01:36:04
EFFECTS NAME IS CROSS DISSOLVE
* FROM CLIP NAME: BL
* TO CLIP NAME: AA018101.mov

007  AX       V     C        09:01:19:04 09:01:21:17 00:01:36:04 00:01:38:17
* FROM CLIP NAME: AA018001.mov

008  AX       V     C        09:01:21:17 09:01:23:13 00:01:38:17 00:01:40:13
* FROM CLIP NAME: AA018001.mov

009  AX       V     C        14:23:04:11 14:23:06:21 00:01:40:13 00:01:42:23
* FROM CLIP NAME: AA019901.mov

010  AX       V     C        14:31:03:23 14:31:07:17 00:01:42:23 00:01:46:17
* FROM CLIP NAME: AA020201.mov

011  AX       V     C        14:31:15:00 14:31:28:16 00:01:46:17 00:02:00:09
* FROM CLIP NAME: AA020201.mov

012  AX       V     C        15:37:03:08 15:37:13:10 00:02:00:09 00:02:10:11
* FROM CLIP NAME: AA020901.mov

013  AX       V     C        11:19:36:12 11:19:42:11 00:02:10:11 00:02:16:10
* FROM CLIP NAME: AA009301.mov

014  AX       V     C        12:37:43:06 12:37:58:05 00:02:16:10 00:02:31:09
* FROM CLIP NAME: AA009501.mov

015  AX       V     C        15:40:50:19 15:40:54:15 00:02:31:09 00:02:35:05
* FROM CLIP NAME: AA021001.mov

016  AX       V     K B      18:06:17:04 18:06:22:23 00:02:35:05 00:02:41:00
FCM: NON-DROP FRAME
016  AX       V     K    000 15:56:11:19 15:56:17:14 00:02:35:05 00:02:41:00
* FROM CLIP NAME: AA023101.mov
* KEY CLIP NAME: AA021401.mov
* OPACITY LEVEL AT 15:54:32:01 IS 6.06%  (REEL AX)

017  AX       V     C        15:46:10:16 15:46:26:13 00:02:41:00 00:02:56:21
* FROM CLIP NAME: AA021301.mov

018  AX       V     K B      11:11:10:07 11:11:21:15 00:02:56:21 00:03:08:05
FCM: NON-DROP FRAME
018  AX       V     K    000 17:37:39:00 17:37:50:08 00:02:56:21 00:03:08:05
* FROM CLIP NAME: AA008901.mov
* KEY CLIP NAME: AA014501.mov

019  AX       V     K B      12:45:19:02 12:45:32:14 00:03:08:05 00:03:08:10
FCM: NON-DROP FRAME
019  AX       V     K    000 17:37:50:08 17:37:50:13 00:03:08:05 00:03:08:10
* FROM CLIP NAME: AA009701.mov
* KEY CLIP NAME: AA014501.mov

020  AX       V     C        12:45:19:02 12:45:19:07 00:03:08:05 00:03:08:10
* FROM CLIP NAME: AA009701.mov
020  AX       V     K B      12:45:19:07 12:45:32:14 00:03:08:10 00:03:21:17
FCM: NON-DROP FRAME
020  AX       V     K    000 09:37:44:06 09:37:57:13 00:03:08:10 00:03:21:17
* FROM CLIP NAME: AA009701.mov
* KEY CLIP NAME: AA015001.mov

021  AX       V     C        15:55:28:05 15:55:38:23 00:03:21:17 00:03:32:11
* FROM CLIP NAME: AA021401.mov

022  AX       V     C        16:10:30:11 16:10:43:02 00:03:32:11 00:03:45:02
* FROM CLIP NAME: AA021601.mov

023  AX       V     C        13:17:05:01 13:17:06:10 00:03:45:02 00:03:46:11
* FROM CLIP NAME: AA010001.mov
023  AX       V     K B      13:17:06:10 13:17:17:08 00:03:46:11 00:03:57:09
FCM: NON-DROP FRAME
023  AX       V     K    000 11:19:12:09 11:19:23:07 00:03:46:11 00:03:57:09
* FROM CLIP NAME: AA010001.mov
* KEY CLIP NAME: AA016101.mov

024  AX       V     K B      13:35:28:16 13:35:30:14 00:03:57:09 00:03:59:07
FCM: NON-DROP FRAME
024  AX       V     K    000 11:19:23:07 11:19:25:05 00:03:57:09 00:03:59:07
* FROM CLIP NAME: AA010601.mov
* KEY CLIP NAME: AA016101.mov

025  AX       V     K B      13:17:20:15 13:17:33:21 00:03:59:07 00:03:59:16
FCM: NON-DROP FRAME
025  AX       V     K    000 11:19:25:05 11:19:25:14 00:03:59:07 00:03:59:16
* FROM CLIP NAME: AA010001.mov
* KEY CLIP NAME: AA016101.mov

026  AX       V     C        13:17:20:15 13:17:21:00 00:03:59:07 00:03:59:16
* FROM CLIP NAME: AA010001.mov
026  AX       V     K B      13:17:21:00 13:17:33:21 00:03:59:16 00:04:00:07
FCM: NON-DROP FRAME
026  AX       V     K    000 11:19:25:14 11:19:26:05 00:03:59:16 00:04:00:07
* FROM CLIP NAME: AA010001.mov
* KEY CLIP NAME: AA016101.mov

027  AX       V     C        13:17:20:15 13:17:31:06 00:03:59:07 00:04:09:22
* FROM CLIP NAME: AA010001.mov
027  AX       V     K B      13:17:31:06 13:17:33:21 00:04:09:22 00:04:12:13
FCM: NON-DROP FRAME
027  AX       V     K    000 00:59:56:00 00:59:58:15 00:04:09:22 00:04:12:13
* FROM CLIP NAME: AA010001.mov
* KEY CLIP NAME: S09_txt-temp
* OPACITY LEVEL AT 00:59:58:11 IS 50.00%  (REEL AX)

028  AX       V     C        11:30:53:23 11:30:56:11 00:04:12:13 00:04:15:01
* FROM CLIP NAME: AA019001.mov

029  AX       V     C        11:33:39:01 11:33:56:06 00:04:15:01 00:04:32:06
* FROM CLIP NAME: AA019201.mov

030  AX       V     K B      11:02:38:17 11:02:48:14 00:04:32:06 00:04:42:03
FCM: NON-DROP FRAME
030  AX       V     K    000 13:32:26:00 13:32:35:21 00:04:32:06 00:04:42:03
* FROM CLIP NAME: AA008801.mov
* KEY CLIP NAME: AA026201.mov

031  AX       V     K B      10:04:29:07 10:04:46:02 00:04:42:03 00:04:58:22
FCM: NON-DROP FRAME
031  AX       V     K    000 13:32:35:21 13:32:38:23 00:04:42:03 00:04:45:05
* FROM CLIP NAME: AA018401.mov
* KEY CLIP NAME: AA026201.mov

032  AX       V     C        09:32:29:07 09:32:37:10 00:04:58:22 00:05:07:01
* FROM CLIP NAME: AA007901.mov

033  AX       V     C        11:30:59:22 11:31:07:01 00:05:07:01 00:05:14:04
* FROM CLIP NAME: AA019001.mov

034  BL       V     C        00:00:00:00 00:00:00:21 00:05:14:04 00:05:15:01

035  AX       V     C        17:14:28:20 17:15:14:05 00:05:15:01 00:06:00:10
* FROM CLIP NAME: AA014101.mov

036  AX       V     C        17:26:31:02 17:26:41:10 00:06:00:10 00:06:10:18
* FROM CLIP NAME: AA014401.mov

037  AX       V     C        17:26:41:10 17:26:47:14 00:06:10:18 00:06:16:22
* FROM CLIP NAME: AA014401.mov

038  AX       V     C        17:26:47:14 17:26:57:20 00:06:16:22 00:06:27:04
* FROM CLIP NAME: AA014401.mov

039  AX       V     C        17:15:45:07 17:16:11:15 00:06:27:04 00:06:53:12
* FROM CLIP NAME: AA014101.mov

040  AX       V     C        16:38:03:23 16:38:05:21 00:06:53:12 00:06:55:10
* FROM CLIP NAME: AA013601.mov

041  AX       V     C        16:33:10:03 16:33:16:18 00:06:55:10 00:07:02:01
* FROM CLIP NAME: AA013501.mov

042  AX       V     C        09:09:18:12 09:09:39:23 00:07:02:01 00:07:23:12
* FROM CLIP NAME: AA009001.mov

043  AX       V     C        11:27:43:09 11:27:56:04 00:07:23:12 00:07:36:07
* FROM CLIP NAME: AA016401.mov

044  AX       V     C        09:44:11:09 09:44:14:06 00:07:36:07 00:07:39:04
* FROM CLIP NAME: AA015201.mov

045  AX       V     C        11:27:58:22 11:28:02:20 00:07:39:04 00:07:43:02
* FROM CLIP NAME: AA016401.mov

046  AX       V     C        09:44:21:14 09:44:31:15 00:07:43:02 00:07:53:03
* FROM CLIP NAME: AA015201.mov

047  AX       V     C        11:15:30:04 11:15:34:01 00:07:53:03 00:07:57:00
* FROM CLIP NAME: AA016001.mov

048  AX       V     C        09:44:32:23 09:44:34:12 00:07:57:00 00:07:58:13
* FROM CLIP NAME: AA015201.mov

049  AX       V     C        09:44:34:12 09:44:36:01 00:07:58:13 00:08:00:02
* FROM CLIP NAME: AA015201.mov

050  AX       V     C        11:20:13:13 11:20:18:11 00:08:00:02 00:08:05:00
* FROM CLIP NAME: AA016101.mov

051  AX       V     C        09:44:40:23 09:44:49:19 00:08:05:00 00:08:13:20
* FROM CLIP NAME: AA015201.mov

052  AX       V     C        09:32:36:06 09:32:38:08 00:08:13:20 00:08:15:22
* FROM CLIP NAME: AA009101.mov

053  AX       V     C        10:37:08:11 10:37:09:19 00:08:15:22 00:08:17:06
* FROM CLIP NAME: AA010201.mov

054  AX       V     C        09:55:57:19 09:55:58:03 00:08:17:06 00:08:17:14
* FROM CLIP NAME: AA009401.mov

055  AX       V     C        09:55:58:03 09:55:59:17 00:08:17:14 00:08:19:04
* FROM CLIP NAME: AA009401.mov

056  AX       V     C        10:04:02:23 10:04:04:20 00:08:19:04 00:08:21:01
* FROM CLIP NAME: AA009601.mov

057  AX       V     C        10:31:08:06 10:31:20:19 00:08:21:01 00:08:33:14
* FROM CLIP NAME: AA009801.mov

058  AX       V     C        17:34:56:15 17:35:09:05 00:08:33:14 00:08:46:04
* FROM CLIP NAME: AA017601.mov

059  AX       V     C        16:14:31:05 16:15:00:13 00:08:46:04 00:09:15:12
* FROM CLIP NAME: AA017001.mov

060  AX       V     C        17:05:18:15 17:06:15:17 00:09:15:12 00:10:12:14
* FROM CLIP NAME: AA017401.mov

061  AX       V     C        12:11:45:13 12:11:59:01 00:10:12:14 00:10:26:02
* FROM CLIP NAME: AA011401.mov

062  AX       V     C        10:33:11:22 10:33:23:10 00:10:26:02 00:10:37:14
* FROM CLIP NAME: AA009901.mov

063  AX       V     C        10:06:15:00 10:06:18:22 00:10:37:14 00:10:41:12
* FROM CLIP NAME: AA015401.mov

064  AX       V     C        10:57:22:15 10:57:34:08 00:10:41:12 00:10:53:05
* FROM CLIP NAME: AA015901.mov

065  AX       V     C        10:06:30:18 10:06:38:07 00:10:53:05 00:11:00:18
* FROM CLIP NAME: AA015401.mov

066  AX       V     C        10:57:34:20 10:57:36:09 00:11:00:18 00:11:02:07
* FROM CLIP NAME: AA015901.mov

067  AX       V     C        10:06:43:05 10:07:00:12 00:11:02:07 00:11:19:14
* FROM CLIP NAME: AA015401.mov

068  AX       V     C        10:07:00:12 10:07:06:14 00:11:19:14 00:11:25:16
* FROM CLIP NAME: AA015401.mov

069  AX       V     C        10:58:12:21 10:58:19:16 00:11:25:16 00:11:32:11
* FROM CLIP NAME: AA015901.mov

070  AX       V     C        10:07:10:13 10:07:19:11 00:11:32:11 00:11:41:09
* FROM CLIP NAME: AA015401.mov

071  AX       V     K B      11:02:08:14 11:02:16:13 00:11:41:09 00:11:49:08
FCM: NON-DROP FRAME
071  AX       V     K    000 17:06:22:18 17:06:29:08 00:11:41:09 00:11:47:23
* FROM CLIP NAME: AA008801.mov
* KEY CLIP NAME: AA017401.mov

072  AX       V     C        12:00:43:11 12:00:53:06 00:11:49:08 00:11:59:03
* FROM CLIP NAME: AA025701.mov

073  AX       V     C        12:04:32:18 12:05:09:15 00:11:59:03 00:12:36:00
* FROM CLIP NAME: AA025801.mov

074  AX       V     C        11:57:06:10 11:57:14:22 00:12:36:00 00:12:44:12
* FROM CLIP NAME: AA025601.mov

075  AX       V     K B      09:20:22:00 09:20:26:18 00:12:44:12 00:12:49:06
FCM: NON-DROP FRAME
075  AX       V     K    000 13:32:26:00 13:32:30:18 00:12:44:12 00:12:49:06
* FROM CLIP NAME: AA007701.mov
* KEY CLIP NAME: AA026201.mov

076  AX       V     C        09:26:58:21 09:27:07:10 00:12:49:06 00:12:57:19
* FROM CLIP NAME: AA007801.mov

077  AX       V     C        10:37:21:09 10:37:50:10 00:12:57:19 00:13:26:20
* FROM CLIP NAME: AA024601.mov

078  AX       V     C        10:47:04:23 10:47:07:23 00:13:26:20 00:13:29:20
* FROM CLIP NAME: AA024801.mov

079  AX       V     C        12:08:48:07 12:08:57:12 00:13:29:20 00:13:39:01
* FROM CLIP NAME: AA011201.mov

080  AX       V     C        12:08:57:12 12:09:00:04 00:13:39:01 00:13:41:17
* FROM CLIP NAME: AA011201.mov

081  AX       V     C        11:12:15:01 11:12:33:17 00:13:41:17 00:14:00:09
* FROM CLIP NAME: AA010301.mov

082  AX       V     C        11:21:00:07 11:21:08:17 00:14:00:09 00:14:08:19
* FROM CLIP NAME: AA025301.mov

083  AX       V     C        11:12:42:03 11:12:52:19 00:14:08:19 00:14:19:11
* FROM CLIP NAME: AA010301.mov

084  AX       V     C        16:43:01:16 16:43:04:08 00:14:19:11 00:14:22:03
* FROM CLIP NAME: AA013801.mov

085  AX       V     C        11:20:44:11 11:21:11:14 00:14:22:03 00:14:49:06
* FROM CLIP NAME: AA025301.mov

086  AX       V     C        13:35:14:22 13:35:25:02 00:14:49:06 00:14:59:10
* FROM CLIP NAME: AA026301.mov

087  AX       V     C        13:44:11:00 13:44:24:19 00:14:59:10 00:15:13:05
* FROM CLIP NAME: AA026401.mov

088  AX       V     C        11:31:01:06 11:31:07:00 00:15:13:05 00:15:18:23
* FROM CLIP NAME: AA025401.mov

089  AX       V     C        11:31:07:00 11:31:09:08 00:15:18:23 00:15:21:07
* FROM CLIP NAME: AA025401.mov

090  AX       V     C        13:35:25:10 13:35:32:18 00:15:21:07 00:15:28:15
* FROM CLIP NAME: AA026301.mov

091  AX       V     C        14:00:53:11 14:01:00:14 00:15:28:15 00:15:35:18
* FROM CLIP NAME: AA026601.mov

092  AX       V     C        11:31:20:17 11:31:27:03 00:15:35:18 00:15:42:04
* FROM CLIP NAME: AA025401.mov

093  AX       V     C        13:44:22:02 13:44:27:01 00:15:42:04 00:15:47:03
* FROM CLIP NAME: AA026401.mov

094  AX       V     C        12:55:29:09 12:55:40:14 00:15:47:03 00:15:58:08
* FROM CLIP NAME: AA026001.mov

095  AX       V     C        09:40:34:20 09:41:21:16 00:15:58:08 00:16:45:04
* FROM CLIP NAME: AA018301.mov

096  AX       V     C        17:38:24:19 17:38:35:14 00:16:45:04 00:16:55:23
* FROM CLIP NAME: AA014601.mov

097  AX       V     C        14:48:57:12 14:49:08:06 00:16:55:23 00:17:06:17
* FROM CLIP NAME: AA010801.mov
097  AX       V     K B      14:49:08:06 14:49:15:07 00:17:06:17 00:17:13:18
FCM: NON-DROP FRAME
097  AX       V     K    000 00:59:56:08 01:00:03:09 00:17:06:17 00:17:13:18
* FROM CLIP NAME: AA010801.mov
* KEY CLIP NAME: Royal Fest Hall_01.jpg
* OPACITY LEVEL AT 00:59:59:00 IS 86.00%  (REEL AX)

098  AX       V     C        15:04:14:13 15:04:27:04 00:17:13:18 00:17:26:09
* FROM CLIP NAME: AA020601.mov

099  AX       V     C        12:44:47:02 12:44:57:11 00:17:26:09 00:17:36:18
* FROM CLIP NAME: AA019401.mov

100  AX       V     C        14:54:56:21 14:55:03:16 00:17:36:18 00:17:43:13
* FROM CLIP NAME: AA011001.mov

101  AX       V     C        16:56:16:16 16:56:28:12 00:17:43:13 00:17:55:09
* FROM CLIP NAME: AA022201.mov

102  AX       V     C        15:26:26:13 15:26:29:05 00:17:55:09 00:17:58:01
* FROM CLIP NAME: AA011701.mov
102  AX       V     K B      15:26:29:05 15:26:34:23 00:17:58:01 00:18:03:19
FCM: NON-DROP FRAME
102  AX       V     K    000 00:59:59:00 01:00:04:18 00:17:58:01 00:18:03:19
* FROM CLIP NAME: AA011701.mov
* KEY CLIP NAME: MISSING_S37
* OPACITY LEVEL AT 00:59:59:13 IS 50.00%  (REEL AX)

103  AX       V     C        15:08:55:03 15:09:05:11 00:18:03:19 00:18:14:03
* FROM CLIP NAME: AA011301.mov

104  AX       V     C        10:04:30:06 10:04:36:02 00:18:14:03 00:18:19:23
* FROM CLIP NAME: AA018401.mov

105  AX       V     C        10:51:04:22 10:51:10:22 00:18:19:23 00:18:25:23
* FROM CLIP NAME: AA008501.mov

106  AX       V     C        16:40:02:16 16:40:13:07 00:18:25:23 00:18:36:14
* FROM CLIP NAME: AA021901.mov
106  AX       V     K B      16:40:13:07 16:40:16:03 00:18:36:14 00:18:39:10
FCM: NON-DROP FRAME
106  AX       V     K    000 00:59:56:09 00:59:59:05 00:18:36:14 00:18:39:10
* FROM CLIP NAME: AA021901.mov
* KEY CLIP NAME: MISSING_S39

107  AX       V     K B      16:46:28:07 16:46:37:12 00:18:39:10 00:18:48:15
FCM: NON-DROP FRAME
107  AX       V     K    000 00:59:59:05 01:00:08:10 00:18:39:10 00:18:48:15
* FROM CLIP NAME: AA022101.mov
* KEY CLIP NAME: MISSING_S39

108  AX       V     C        10:57:30:03 10:57:35:23 00:18:48:15 00:18:54:11
* FROM CLIP NAME: AA008701.mov

109  AX       V     C        10:04:41:03 10:04:47:15 00:18:54:11 00:19:00:23
* FROM CLIP NAME: AA018401.mov

110  AX       V     C        09:14:55:23 09:15:19:12 00:19:00:23 00:19:24:12
* FROM CLIP NAME: AA023401.mov

111  AX       V     C        16:02:29:13 16:02:35:00 00:19:24:12 00:19:29:23
* FROM CLIP NAME: AA012901.mov

112  AX       V     C        14:15:58:23 14:16:09:14 00:19:29:23 00:19:40:14
* FROM CLIP NAME: AA011801.mov

113  AX       V     C        14:37:29:07 14:37:39:11 00:19:40:14 00:19:50:18
* FROM CLIP NAME: AA027001.mov

114  AX       V     C        09:47:00:22 09:47:11:19 00:19:50:18 00:20:01:15
* FROM CLIP NAME: AA023901.mov

115  AX       V     C        09:15:56:15 09:16:04:09 00:20:01:15 00:20:09:09
* FROM CLIP NAME: AA023401.mov

116  AX       V     C        14:39:26:17 14:39:30:11 00:20:09:09 00:20:13:03
* FROM CLIP NAME: AA027101.mov

117  AX       V     C        14:17:25:04 14:17:49:10 00:20:13:03 00:20:37:09
* FROM CLIP NAME: AA011801.mov

118  AX       V     C        13:21:21:10 13:21:26:12 00:20:37:09 00:20:42:11
* FROM CLIP NAME: AA011501.mov

119  AX       V     C        14:17:54:12 14:17:56:17 00:20:42:11 00:20:44:16
* FROM CLIP NAME: AA011801.mov

120  AX       V     C        16:03:25:20 16:03:28:14 00:20:44:16 00:20:47:10
* FROM CLIP NAME: AA013001.mov

121  AX       V     C        14:20:43:20 14:20:48:11 00:20:47:10 00:20:52:01
* FROM CLIP NAME: AA011801.mov

122  AX       V     C        16:03:37:09 16:03:44:08 00:20:52:01 00:20:59:00
* FROM CLIP NAME: AA013001.mov

123  AX       V     C        14:20:59:22 14:21:06:09 00:20:59:00 00:21:05:11
* FROM CLIP NAME: AA011801.mov

124  AX       V     C        13:21:07:00 13:21:12:00 00:21:05:11 00:21:10:11
* FROM CLIP NAME: AA011501.mov

125  AX       V     C        17:48:57:22 17:49:21:08 00:21:10:11 00:21:33:21
* FROM CLIP NAME: AA017901.mov

126  AX       V     K B      16:33:05:02 16:33:10:00 00:21:33:21 00:21:38:19
FCM: NON-DROP FRAME
126  AX       V     K    000 00:59:56:09 01:00:01:07 00:21:33:21 00:21:38:19
* FROM CLIP NAME: AA013501.mov
* KEY CLIP NAME: MISSING_S48

127  AX       V     C        17:16:17:17 17:16:27:19 00:21:38:19 00:21:48:21
* FROM CLIP NAME: AA022401.mov

128  AX       V     C        17:26:43:15 17:26:46:22 00:21:48:21 00:21:52:04
* FROM CLIP NAME: AA022601.mov

129  AX       V     C        12:53:12:16 12:53:18:14 00:21:52:04 00:21:58:02
* FROM CLIP NAME: AA019501.mov

130  AX       V     C        16:33:55:07 16:33:59:10 00:21:58:02 00:22:02:05
* FROM CLIP NAME: AA012601.mov

131  AX       V     C        16:39:36:02 16:39:42:06 00:22:02:05 00:22:08:09
* FROM CLIP NAME: AA012701.mov

132  AX       V     C        16:34:14:18 16:34:29:19 00:22:08:09 00:22:23:10
* FROM CLIP NAME: AA012601.mov

133  AX       V     C        16:39:57:10 16:40:06:09 00:22:23:10 00:22:32:09
* FROM CLIP NAME: AA012701.mov

134  AX       V     C        16:34:38:18 16:35:06:04 00:22:32:09 00:22:59:19
* FROM CLIP NAME: AA012601.mov

135  AX       V     C        16:40:34:11 16:40:38:07 00:22:59:19 00:23:03:15
* FROM CLIP NAME: AA012701.mov

136  AX       V     C        16:35:35:22 16:35:39:22 00:23:03:15 00:23:07:15
* FROM CLIP NAME: AA012601.mov

137  AX       V     C        16:00:25:17 16:00:31:18 00:23:07:15 00:23:13:16
* FROM CLIP NAME: AA012101.mov

138  AX       V     C        16:00:36:11 16:00:41:01 00:23:13:16 00:23:18:06
* FROM CLIP NAME: AA012101.mov

139  AX       V     C        16:09:04:06 16:09:11:01 00:23:18:06 00:23:25:01
* FROM CLIP NAME: AA012201.mov

140  AX       V     C        18:05:51:13 18:05:52:05 00:23:25:01 00:23:25:17
* FROM CLIP NAME: AA023101.mov
140  AX       V     K B      18:05:52:05 18:06:03:18 00:23:25:17 00:23:37:06
FCM: NON-DROP FRAME
140  AX       V     K    000 00:59:53:11 01:00:05:00 00:23:25:17 00:23:37:06
* FROM CLIP NAME: AA023101.mov
* KEY CLIP NAME: MISSING_S53

141  AX       V     K B      16:18:39:21 16:18:46:08 00:23:37:06 00:23:37:08
FCM: NON-DROP FRAME
141  AX       V     K    000 01:00:05:00 01:00:05:02 00:23:37:06 00:23:37:08
* FROM CLIP NAME: AA012301.mov
* KEY CLIP NAME: MISSING_S53

142  AX       V     C        16:18:39:21 16:18:39:23 00:23:37:06 00:23:37:08
* FROM CLIP NAME: AA012301.mov
142  AX       V     K B      16:18:39:23 16:18:46:08 00:23:37:08 00:23:43:17
FCM: NON-DROP FRAME
142  AX       V     K    000 00:59:56:09 01:00:02:18 00:23:37:08 00:23:43:17
* FROM CLIP NAME: AA012301.mov
* KEY CLIP NAME: MISSING_S54

143  AX       V     C        16:26:38:19 16:26:42:16 00:23:43:17 00:23:47:14
* FROM CLIP NAME: AA021801.mov
143  AX       V     K B      16:26:42:16 16:26:53:23 00:23:47:14 00:23:58:21
FCM: NON-DROP FRAME
143  AX       V     K    000 00:59:56:09 01:00:00:16 00:23:47:14 00:23:51:21
* FROM CLIP NAME: AA021801.mov
* KEY CLIP NAME: S56_email

144  AX       V     C        14:48:28:20 14:48:33:05 00:23:58:21 00:24:03:06
* FROM CLIP NAME: AA020501.mov

145  AX       V     C        14:20:18:23 14:20:31:17 00:24:03:06 00:24:16:00
* FROM CLIP NAME: AA026801.mov

146  AX       V     C        16:26:31:00 16:26:38:00 00:24:16:00 00:24:23:00
* FROM CLIP NAME: AA021801.mov

147  AX       V     C        14:53:30:20 14:53:47:13 00:24:23:00 00:24:39:17
* FROM CLIP NAME: AA027301.mov

148  AX       V     C        10:38:03:11 10:38:33:11 00:24:39:17 00:25:09:17
* FROM CLIP NAME: AA018601.mov

149  AX       V     C        16:36:18:07 16:36:21:04 00:25:09:17 00:25:12:14
* FROM CLIP NAME: AA012601.mov
149  AX       V     K B      16:36:21:04 16:36:24:07 00:25:12:14 00:25:15:17
FCM: NON-DROP FRAME
149  AX       V     K    000 00:59:58:05 01:00:01:08 00:25:12:14 00:25:15:17
* FROM CLIP NAME: AA012601.mov
* KEY CLIP NAME: S61_email

150  BL       V     C        00:00:00:00 00:00:01:02 00:25:15:17 00:25:16:19

151  AX       V     C        15:45:45:12 15:45:54:12 00:25:16:19 00:25:25:19
* FROM CLIP NAME: AA012701.mov

152  AX       V     C        15:20:50:06 15:21:02:00 00:25:25:19 00:25:37:13
* FROM CLIP NAME: AA012101.mov

153  AX       V     C        14:45:11:16 14:45:28:14 00:25:37:13 00:25:54:11
* FROM CLIP NAME: AA011901.mov

154  AX       V     C        15:25:42:09 15:26:03:21 00:25:54:11 00:26:15:23
* FROM CLIP NAME: AA012201.mov

155  AX       V     C        14:45:33:23 14:45:45:22 00:26:15:23 00:26:27:22
* FROM CLIP NAME: AA011901.mov

156  AX       V     C        15:43:53:20 15:44:00:04 00:26:27:22 00:26:34:06
* FROM CLIP NAME: AA012601.mov

157  AX       V     C        14:45:48:12 14:45:59:22 00:26:34:06 00:26:45:16
* FROM CLIP NAME: AA011901.mov

158  AX       V     C        15:46:30:20 15:46:41:03 00:26:45:16 00:26:55:23
* FROM CLIP NAME: AA012701.mov

159  AX       V     C        15:39:27:18 15:39:34:18 00:26:55:23 00:27:02:23
* FROM CLIP NAME: AA012501.mov

160  AX       V     C        14:47:44:09 14:48:05:02 00:27:02:23 00:27:23:16
* FROM CLIP NAME: AA011901.mov
